<svg version="1.1" viewBox="0 0 1244 1244" width="1244" height="1244" xmlns="http://www.w3.org/2000/svg">
    <path transform="translate(0)" d="m0 0h1244v1244h-1244z" fill="#241C1F"/>
    <path transform="translate(91,84)" d="m0 0h1066l1 2v84l-1 2h-1068v-87z" fill="#EA1C24"/>
    <path transform="translate(982,249)" d="m0 0h38l26 3 21 5 17 6 16 8 11 7 10 9 5 5 7 9 5 11 3 16v8l-3 13-7 11-8 8-14 8-11 4-8 1v3l6 2 12 6 14 10 11 9 3 3v2h2l11 14 6 12 4 13 1 9v16l-4 18-4 10-7 12-6 8h-2l-2 4-4 2v2l-13 10-18 11-19 9-21 7-17 4-20 3-11 1h-44l-24-3-25-6-20-7-20-9-16-8-11-8-3-2v-2h-2v-2h-2l-3-4v-2h-2l-8-16-3-13v-22l3-10 7-11 9-8 14-8 10-4 21-4-5-4-13-9-10-9-4-5v-2h-2l-7-11-6-16-3-15v-19l4-17 7-14 6-8 9-10 9-8 15-10 19-10 19-7 26-6z" fill="#FEFEFE"/>
    <path transform="translate(580,249)" d="m0 0h38l22 2 26 5 21 7 16 7 11 7 9 7 7 10 4 9 1 6v11l-4 11-9 10-13 8-13 4-7 1h-23l-15-3-10-4-13-8-9-9v-2h-2l-6-12-3-12v-9l2-9 7-14-1-7-6-5-8-2h-18l-10 3-10 6-8 9-7 14-4 14-6 26-3 20-3 26-1 17 3-1 4-6h2v-2l11-8 11-5 16-4 16-2h32l23 3 22 6 20 9 11 7 13 10 10 10 10 15 6 15 2 11v28l-5 19-8 16-8 11h-2l-1 3h-2l-2 4-9 8-14 10-22 12-17 7-19 6-29 5-10 1h-43l-24-3-20-5-18-7-17-9-13-9-9-7-10-9-8-8-8-10v-2h-2l-10-16-7-16-5-16-3-14-2-18v-32l3-19 5-17 5-12 9-17 10-14 10-11 7-8 11-10 11-8 16-10 19-9 24-8 31-6z" fill="#FEFEFE"/>
    <path transform="translate(90,253)" d="m0 0 206 1 1 286 3 14 3 4v2l4 2 7 3 16 2 22 1 3 1v7h-259v-7l26-2 20-3 10-5 6-12 1-8v-246l-2-11-5-10-8-5-7-2-23-2-18-1-6-1z" fill="#FEFEFE"/>
    <path transform="translate(900,436)" d="m0 0 9 1 51 16 31 10 20 7 20 8 16 9 4 3v2h2l6 8 5 12 1 6v13l-3 10-6 9-9 8-14 7-15 5-11 2-11 1h-18l-22-2-25-6-19-8-15-9-13-12-7-8-6-11-3-9-1-6v-16l3-14 5-12 6-9 9-9z" fill="#241C1F"/>
    <path transform="translate(994,258)" d="m0 0h33l20 3 15 4 18 8 10 7 9 9 7 11 4 12 1 6v14l-4 16-6 12-9 10-9 8h-7l-29-9-29-8-33-11-12-6-11-8-10-9-6-12-1-3v-18l4-11 4-6h2v-2l11-8 13-6z" fill="#241C1F"/>
    <path transform="translate(564,380)" d="m0 0h17l9 3 8 6 5 6 5 13 2 11 4 45v24l-3 49-2 10-5 12-6 7-12 6-6 1h-10l-10-2-10-6-4-5-6-12-5-20-3-24-1-14v-46l1-22 2-14 5-10 9-10 7-5z" fill="#241C1F"/>
    <path transform="translate(853,692)" d="m0 0h123v22l-88 1-1 29h83v22l-82 1-1 35h92l1 1v21l-1 1h-125l-1-1z" fill="#FEFEFE"/>
    <path transform="translate(1080,690)" d="m0 0h32l15 3 10 4 11 7 8 11 3 8v7l-5 1h-29l-4-10-6-5-5-2-6-1h-17l-12 3-6 5v7l5 5 7 3 21 5 26 6 14 5 9 6 6 5 5 8 2 7v15l-4 10-3 5h-2v2l-9 7-10 5-16 4-9 1h-27l-20-4-10-4-11-8-8-10-5-13-1-6 1-1 26-2h6l4 10 3 4v2l14 7 5 1h21l10-3 6-4 4-5v-9l-4-5-14-5-37-8-16-6-9-5-9-9-4-8-1-12 3-10 5-8 9-7 10-5z" fill="#FEFEFE"/>
    <path transform="translate(143,690)" d="m0 0h32l15 3 12 5 8 6 8 9 4 11v6l-9 1h-25l-4-9-5-5-6-3-6-1h-18l-13 4-3 1-1 3v8l6 5 21 6 28 6 13 4 12 6 5 4v2h2l6 10 2 6v15l-4 10-6 8-11 8-14 5-9 2-9 1h-27l-17-3-13-5-11-8-8-10-5-12-1-7 1-1 23-2h9l6 15h2v2l4 2 9 4 6 1h21l11-4 6-5 2-4v-8l-4-5-14-5-37-8-17-6-9-6-8-8-4-9-1-5v-7l3-9 6-9 13-9 12-4z" fill="#FEFEFE"/>
    <path transform="translate(461,692)" d="m0 0h39l14 19 1 3h2l4 6v2h2l7 10 8 11 5-5 7-10 11-15 8-11 7-10h39l-2 4-13 16-7 9-8 11h-2l-2 4-10 13-2 3h-2l-2 4-9 12-1 56-1 1h-32l-1-1-1-56-10-12-11-14-24-30v-2h-2l-9-12v-2h-2z" fill="#FEFEFE"/>
    <path transform="translate(273,692)" d="m0 0h132v22l-3 1h-45l-1 109-1 1h-32l-1-1v-109h-48l-1-1z" fill="#FEFEFE"/>
    <path transform="translate(675,693)" d="m0 0h34v109h83l1 5v17l-1 1h-116l-1-1z" fill="#FEFEFE"/>
    <path transform="translate(134,901)" d="m0 0h30l1 3v112l-1 3h-30l-1-3v-113z" fill="#EA1C24"/>
    <path transform="translate(326,901)" d="m0 0h29l1 1v116l-1 1h-30v-117z" fill="#EA1C24"/>
    <path transform="translate(372,901)" d="m0 0h29l1 1v117h-30z" fill="#EA1C24"/>
    <path transform="translate(527,901)" d="m0 0h22l1 3v112l-1 3h-23v-116z" fill="#EA1C24"/>
    <path transform="translate(177,901)" d="m0 0h23v118h-23z" fill="#EA1C24"/>
    <path transform="translate(109,901)" d="m0 0h14l2 3v159l-1 3-5 1-10-1z" fill="#EA1C24"/>
    <path transform="translate(88,901)" d="m0 0h14l1 1v164l-3 1h-7l-5-2z" fill="#EA1C24"/>
    <path transform="translate(764,901)" d="m0 0h19l1 1v116l-7 2-14-1v-117z" fill="#EA1C24"/>
    <path transform="translate(729,901)" d="m0 0h20l1 1v115l-1 2h-20z" fill="#EA1C24"/>
    <path transform="translate(416,901)" d="m0 0h18l1 1v117h-19l-1-1v-116z" fill="#EA1C24"/>
    <path transform="translate(584,901)" d="m0 0h9l1 3v166h-10l-1-8v-157z" fill="#EA1C24"/>
    <path transform="translate(607,901)" d="m0 0h9l1 1v167l-5 2-5-1-1-64v-93z" fill="#EA1C24"/>
    <path transform="translate(1145,901)" d="m0 0h10l1 1v159l-7 1-4-2z" fill="#EA1C24"/>
    <path transform="translate(1123,901)" d="m0 0h10l1 1v157l-1 2h-9l-1-1z" fill="#EA1C24"/>
    <path transform="translate(292,901)" d="m0 0h10l1 3v111l-1 4h-10l-1-3v-113z" fill="#EA1C24"/>
    <path transform="translate(233,901)" d="m0 0h10l1 1v116l-1 1h-10z" fill="#EA1C24"/>
    <path transform="translate(864,901)" d="m0 0h10v118h-10l-1-1v-115z" fill="#EA1C24"/>
    <path transform="translate(269,901)" d="m0 0h10v118h-10l-1-2v-114z" fill="#EA1C24"/>
    <path transform="translate(1011,901)" d="m0 0h9l1 2v114l-1 2h-10v-117z" fill="#EA1C24"/>
    <path transform="translate(1101,901)" d="m0 0h10v118h-10l-1-4v-112z" fill="#EA1C24"/>
    <path transform="translate(966,901)" d="m0 0h8l2 1v116l-1 1h-9l-1-2v-115z" fill="#EA1C24"/>
    <path transform="translate(506,901)" d="m0 0h9l1 1v116l-1 1h-9l-1-3v-113z" fill="#EA1C24"/>
    <path transform="translate(1044,901)" d="m0 0h9l1 1v117h-10l-1-5v-111z" fill="#EA1C24"/>
    <path transform="translate(920,901)" d="m0 0h10l1 5v112l-1 1h-10z" fill="#EA1C24"/>
    <path transform="translate(652,901)" d="m0 0h9l1 3v109l-1 6h-10v-117z" fill="#EA1C24"/>
    <path transform="translate(628,901)" d="m0 0h9l1 1v116l-1 1h-9l-1-8v-108z" fill="#EA1C24"/>
    <path transform="translate(886,901)" d="m0 0h10l1 9v97l-1 12h-9l-1-1z" fill="#EA1C24"/>
    <path transform="translate(808,901)" d="m0 0h10v118h-10z" fill="#EA1C24"/>
    <path transform="translate(673,901)" d="m0 0h9l1 1v117h-10z" fill="#EA1C24"/>
    <path transform="translate(448,901)" d="m0 0h8l2 1v117h-10z" fill="#EA1C24"/>
</svg>